<?xml version="1.0" encoding="utf-8"?>
<!-- Generator: Adobe Illustrator 23.0.5, SVG Export Plug-In . SVG Version: 6.00 Build 0)  -->
<svg version="1.1" id="Layer_1" xmlns="http://www.w3.org/2000/svg" xmlns:xlink="http://www.w3.org/1999/xlink" x="0px" y="0px"
	 viewBox="0 0 752 752" style="enable-background:new 0 0 752 752;" xml:space="preserve">
<style type="text/css">
	.st0{fill:#32B066;}
</style>
<g>
	<path class="st0" d="M546.2,154c-28.6,0-51.8,23.2-51.8,51.8c0,28.6,23.2,51.8,51.8,51.8c28.6,0,51.8-23.2,51.8-51.8
		C598,177.2,574.8,154,546.2,154L546.2,154z M575.8,213.2h-22.2v22.2h-14.8v-22.2h-22.2l0-14.8h22.2l0-22.2h14.8v22.2h22.2V213.2z"
		/>
	<path class="st0" d="M168.8,598h29.6v-44.4H450V598h29.6v-44.4h14.8V487c0-16.3-13.3-29.6-29.6-29.6H183.6
		c-16.3,0-29.6,13.3-29.6,29.6v66.6h14.8L168.8,598z"/>
	<path class="st0" d="M436,331.6c7.7,0,14-6.6,14-14.8V228c0-8.2-6.3-14.8-14-14.8h-60c0,20.1-8.8,37.8-22.2,48.5v5.3l20,2.9
		c18.1,2.6,31.8,18.3,31.8,36.6v25.1L436,331.6z"/>
	<path class="st0" d="M242.8,331.6v-25.1c0-18.3,13.7-34,31.8-36.6l20-2.9v-5.3c-13.4-10.7-22.2-28.4-22.2-48.5h-60
		c-7.7,0-14,6.6-14,14.8v88.8c0,8.2,6.3,14.8,14,14.8L242.8,331.6z"/>
	<path class="st0" d="M451.5,450L432,370.7c-2.4-9.9-11.3-16.9-21.6-16.9h-12.2v-47.3c0-14.6-10.9-27.2-25.4-29.3l-26.4-3.8V258
		c13.2-9,22.2-25.7,22.2-44.8c0-28.6-19.9-51.8-44.4-51.8s-44.4,23.2-44.4,51.8c0,19.1,9,35.8,22.2,44.8v15.4l-26.4,3.8
		c-14.5,2.1-25.4,14.7-25.4,29.3v47.3h-12.5c-10.1,0-18.9,6.8-21.5,16.5L195.1,450L451.5,450z M294.6,213.2c0-20.4,13.3-37,29.6-37
		s29.6,16.6,29.6,37s-13.3,37-29.6,37S294.6,233.6,294.6,213.2z M265,306.5c0-7.3,5.5-13.6,12.7-14.6l32.7-4.7
		c3.6-0.5,6.4-3.6,6.4-7.3v-15.6c2.4,0.5,4.9,0.8,7.4,0.8s5-0.3,7.4-0.8v15.6c0,3.7,2.7,6.8,6.3,7.3l32.7,4.7
		c7.2,1,12.7,7.3,12.7,14.6l0,47.4H265L265,306.5z"/>
</g>
</svg>
