<?xml version="1.0" encoding="UTF-8"?>
<svg width="752pt" height="752pt" version="1.1" viewBox="0 0 752 752" xmlns="http://www.w3.org/2000/svg">
 <g>
  <path d="m294.61 213.21h162.79c4.0703 0 7.3984 3.3281 7.3984 7.3984v88.797c0 4.0703-3.3281 7.3984-7.3984 7.3984l-162.79 0.003907c-4.0703 0-7.3984-3.3281-7.3984-7.3984l-0.003906-88.797c0-4.0703 3.332-7.4023 7.4023-7.4023z"/>
  <path d="m294.61 353.8h29.598v14.801h-29.598z"/>
  <path d="m287.2 390.8h51.797v14.801h-51.797z"/>
  <path d="m287.2 427.8h51.797v14.801h-51.797z"/>
  <path d="m287.2 464.8h44.398v14.801h-44.398z"/>
  <path d="m287.2 501.8h44.398v14.801h-44.398z"/>
  <path d="m435.2 450v18.5c9.7109-2.2188 19.609-3.6055 29.598-4.0703v-14.43z"/>
  <path d="m479.6 450v14.43c9.9883 0.46094 19.887 1.8516 29.598 4.0703v-18.5z"/>
  <path d="m429.09 485.43-23.492 7.0312v9.3398h133.2v-9.3438l-23.492-7.0312c-28.121-8.4141-58.09-8.4141-86.211 0.003906z"/>
  <path d="m501.8 349.92v-173.71c0-12.211-9.9883-22.199-22.199-22.199h-207.19c-12.211 0-22.199 9.9883-22.199 22.199v133.2c-2.5898 0-4.9961 1.3867-6.3828 3.6055l-38.758 64.656c-4.5312 7.5859-6.1953 16.465-4.8086 25.16l10.824 64.746c1.0156 6.2891-0.64844 12.766-4.7188 17.668l-58.086 71.035 11.469 9.3438 58.086-70.945c6.7539-8.2305 9.6211-18.961 7.8633-29.508l-10.82-64.84c-0.83203-5.1797 0.18359-10.543 2.8672-15.078l34.965-58.273 4.8086 2.8672c10.543 6.2891 13.969 19.98 7.5859 30.43-0.09375 0.09375-0.18359 0.18359-0.18359 0.37109l-17.672 28.305c-3.1445 5.0859-4.1641 11.285-2.6836 17.113l5.6445 22.66v102.67c0 10.082 6.8438 18.961 16.648 21.461-5.0859 2.4062-9.5273 5.918-13.043 10.266l-24.141 30.246 11.562 9.25 24.141-30.152c2.6836-3.3281 6.2891-5.8281 10.359-7.2148l34.965-11.656h65.766c23.863 28.211 58.922 44.398 95.824 44.398 69.371 0 125.8-56.422 125.8-125.8-0.09375-59.195-41.16-108.96-96.289-122.28zm-229.39 188.88c-4.0703 0-7.3984-3.3281-7.3984-7.3984v-103.59c0-0.64844-0.09375-1.2031-0.18359-1.7578l-5.918-23.492c-0.46094-1.9414-0.18359-3.9766 0.92578-5.7344l17.668-28.305c10.82-17.297 5.5508-40.145-11.746-50.965-0.18359-0.09375-0.37109-0.27734-0.55469-0.37109l-0.18359-0.09375-0.007813-140.87c0-4.0703 3.3281-7.3984 7.3984-7.3984h29.598v7.3984c0 12.211 9.9883 22.199 22.199 22.199h103.6c12.211 0 22.199-9.9883 22.199-22.199v-7.3984h29.598c4.0703 0 7.3984 3.3281 7.3984 7.3984v171.03c-25.805-3.0508-51.891 1.9414-74.738 14.246l-63.453-22.105c-3.8867-1.3867-8.0469 0.64844-9.4336 4.5312-0.55469 1.5742-0.55469 3.3281 0 4.9023l22.105 63.453c-21.551 39.773-20.07 88.148 3.9766 126.54zm281.19-7.3984h-14.801v-14.801l-133.19 0.003906v14.801h-14.801v-111c0-3.0508 1.8516-5.7344 4.625-6.8438l15.633-6.1953c39.219-15.816 83.062-15.816 122.28 0l15.633 6.1953c2.7734 1.1094 4.625 3.8867 4.625 6.8438z"/>
  <path d="m416.52 421.05-10.914 4.3477v51.613l14.801-4.4414-0.003906-29.969c0-4.0703 3.3281-7.3984 7.3984-7.3984h88.797c4.0703 0 7.3984 3.3281 7.3984 7.3984v29.969l14.801 4.4414v-51.613l-10.914-4.3477c-35.703-14.336-75.66-14.336-111.36 0z"/>
 </g>
</svg>
