<?xml version="1.0" encoding="utf-8"?>
<!-- Generator: Adobe Illustrator 23.0.5, SVG Export Plug-In . SVG Version: 6.00 Build 0)  -->
<svg version="1.1" id="Layer_1" xmlns="http://www.w3.org/2000/svg" xmlns:xlink="http://www.w3.org/1999/xlink" x="0px" y="0px"
	 viewBox="0 0 752 752" style="enable-background:new 0 0 752 752;" xml:space="preserve">
<style type="text/css">
	.st0{fill:#32B066;}
	.st1{fill:#FFFFFF;}
</style>
<path class="st0" d="M546.2,154c-28.6,0-51.8,23.2-51.8,51.8s23.2,51.8,51.8,51.8s51.8-23.2,51.8-51.8S574.8,154,546.2,154
	L546.2,154z M575.8,213.2h-22.2v22.2h-14.8v-22.2h-22.2v-14.8h22.2v-22.2h14.8v22.2h22.2V213.2z"/>
<path class="st0" d="M436,331.6c7.7,0,14-6.6,14-14.8V228c0-8.2-6.3-14.8-14-14.8h-60c0,20.1-8.8,37.8-22.2,48.5v5.3l20,2.9
	c18.1,2.6,31.8,18.3,31.8,36.6v25.1H436z"/>
<path class="st0" d="M242.8,331.6v-25.1c0-18.3,13.7-34,31.8-36.6l20-2.9v-5.3c-13.4-10.7-22.2-28.4-22.2-48.5h-60
	c-7.7,0-14,6.6-14,14.8v88.8c0,8.2,6.3,14.8,14,14.8H242.8z"/>
<path class="st0" d="M451.5,389.5c-5,0-9.9,0.3-14.7,1l-4.9-19.7c-2.4-9.9-11.3-16.9-21.6-16.9h-12.2v-47.3
	c0-14.6-10.9-27.2-25.4-29.3l-26.4-3.8V258c13.2-9,22.2-25.7,22.2-44.8c0-28.6-19.9-51.8-44.4-51.8s-44.4,23.2-44.4,51.8
	c0,19.1,9,35.8,22.2,44.8v15.4l-26.4,3.8c-14.5,2.1-25.4,14.7-25.4,29.3v47.3h-12.5c-10.1,0-18.9,6.8-21.5,16.5l-21,79.7h157.1
	c-1.2,2.4-2.4,4.9-3.5,7.4H183.6c-16.3,0-29.6,13.3-29.6,29.6v66.6h14.8V598h29.6v-44.4h154.4c18.8,35.3,55.9,59.3,98.7,59.3
	c61.7,0,111.7-50,111.7-111.7S513.2,389.5,451.5,389.5z M294.6,213.2c0-20.4,13.3-37,29.6-37c16.3,0,29.6,16.6,29.6,37
	s-13.3,37-29.6,37S294.6,233.6,294.6,213.2z M265,306.5c0-7.3,5.5-13.6,12.7-14.6l32.7-4.7c3.6-0.5,6.4-3.6,6.4-7.3v-15.6
	c2.4,0.5,4.9,0.8,7.4,0.8s5-0.3,7.4-0.8v15.6c0,3.7,2.7,6.8,6.3,7.3l32.7,4.7c7.2,1,12.7,7.3,12.7,14.6v47.4H265V306.5z"/>
<g>
	<path class="st1" d="M471.5,516.1c0.2-4,0.5-8.4,0.5-12.9c0-10.5-8.5-19-19-19c-10.3,0-18.7,8.2-19,18.8c-0.2,4-0.3,7.9-0.3,11.7
		v4.3c0,1.1,0,2.3,0.2,3.4c0,1.3,0.2,2.4,0.2,3.7c0.2,2.4,0.3,4.8,0.5,7.2s0.5,4.7,0.8,6.9c0.2,0.8,0.3,1.8,0.3,2.6
		c0,0.5,0.2,1,0.2,1.4c0.2,0.6,0.2,1.1,0.3,1.8c0.2,0.6,0.2,1.1,0.3,1.8c0.2,0.6,0.2,1.1,0.3,1.8c0.2,0.5,0.2,1,0.3,1.4v0.2
		c0,0.2,0.2,0.3,0.2,0.5s0,0.3,0.2,0.3c0.2,0.8,0.3,1.6,0.5,2.3v0.2c0,0.2,0,0.3,0.2,0.5c0.3,1,0.5,1.9,0.8,2.9
		c0,0.2,0.2,0.3,0.2,0.5c0.3,1.1,0.6,2.1,1,3.1c0.2,0.3,0.2,0.8,0.3,1.1c0.2,0.6,0.3,1.3,0.6,1.8c0.2,0.3,0.2,0.6,0.3,0.8
		c0.3,0.8,0.6,1.8,1,2.6c1.6,0.3,2.9,0.5,4.2,0.6c1.1,0.2,2.4,0.2,3.9,0.3c-7.9-17.2-10.8-38-9.7-65.3c0.5-6.8,5.5-11.9,11.7-11.9
		c6.6,0,11.7,5.3,11.7,11.7c0,4.2-0.2,8.2-0.5,12.5v0.3c-0.6,15.9-1.4,30.9,12.1,48.3c0.6-0.3,1.3-0.5,1.9-0.8
		c1.6-0.6,3.2-1.4,5-2.4C469.9,545.2,470.6,531.7,471.5,516.1L471.5,516.1z"/>
	<path class="st1" d="M429.2,564.2c1,0.3,2.1,0.8,3.2,1.1c-7.4-26.4-6.9-56-6.8-61.6v-0.2c0-15.1,12.2-27.3,27.2-27.3
		s27.2,12.2,27.2,27.2c0,3.2-0.2,6.4-0.3,9.8c-0.6,13.8-1.4,29.4,10.3,43.9c0.2-0.2,0.3-0.2,0.5-0.3c1.8-1.3,3.7-2.7,5.3-4.2
		c-10.1-12.4-9.5-25.4-8.7-39.2c0.2-3.4,0.3-6.8,0.3-10.1c0-19-15.4-34.6-34.6-34.6c-19,0-34.6,15.4-34.6,34.6v0.6
		c-0.2,9.5-0.2,34.1,5.6,57.9C425.8,562.7,427.6,563.5,429.2,564.2L429.2,564.2z"/>
	<path class="st1" d="M491.1,470.1c-9.6-10.5-24-16.6-38.3-16.6c-27.3,0-49.9,22.4-50,49.9c0,0.8,0,21.4,3.5,45.7l0.2,0.2
		c0.2,0.2,0.2,0.2,0.3,0.3c1.9,1.9,4,3.7,6.3,5.5c0.6,0.5,1.3,1,2.1,1.6c-4.7-27.2-4.8-52.9-4.8-53.1c0-23.5,19.1-42.6,42.6-42.6
		c12.2,0,24.6,5.3,33,14.3c7.1,7.9,10.5,17.9,9.6,28c-0.2,1.1-0.3,2.3-0.3,3.4c-0.2,1.1-0.3,2.1-0.3,3.2c-0.3,2.9-0.6,6-0.8,8.8
		c1.1-7.2,4.3-13.7,9-18.8C502.9,488.9,498.9,478.6,491.1,470.1L491.1,470.1z"/>
	<path class="st1" d="M456.6,511.6v-8.4c0-1.9-1.8-3.7-3.7-3.7c-1.9,0-3.7,1.8-3.7,3.7v8.2c-0.3,18.7-0.5,36.2,11.7,56.6
		c1-0.2,2.1-0.3,3.1-0.5c1.4-0.3,3.1-0.6,4.8-1C456.1,547,456.2,529.7,456.6,511.6L456.6,511.6z"/>
	<path class="st1" d="M452.9,438.1c-36,0-65.3,29.3-65.3,65.3c0,12.1,3.4,24,9.6,34.1l0.2,0.2c-1.9-15.8-2.9-29-2.9-34.9
		c0-15.6,6-30.1,16.9-41c11.1-10.9,25.7-16.9,41-16.9c15.6,0,30.1,6,41,16.9c8.7,8.8,14.3,20.1,16.2,32c2.3-1.4,4.7-2.7,7.1-3.7
		C510.8,460.6,484.4,438.1,452.9,438.1L452.9,438.1z"/>
	<path class="st1" d="M501.4,557.4c-2.1,1.9-4.3,3.7-6.9,5.5c-1.9,1.3-3.9,2.6-5.8,3.7c-2.7,1.6-5.5,2.9-8.2,4
		c-2.1,1-4.2,1.6-6.3,2.3c-2.9,1-6,1.6-9.2,2.3c-3.4,0.6-6.8,1-10.1,1h-0.6h-1.9c-2.4,0-4.8-0.2-7.2-0.3c-2.9-0.3-5.8-0.8-8.7-1.4
		c-3.4-0.8-6.8-1.8-10.1-3.1c-2.9-1.1-5.5-2.4-8-3.7c-3.5-1.9-6.9-4.2-10.1-6.6c-2.4-1.9-4.8-4-6.9-6.1c-3.9-4-7.4-8.4-10.5-13.2
		c-7.1-11.4-10.8-24.6-10.8-38.1c0-40.1,32.7-72.7,72.7-72.7c34.9,0,64.2,24.8,71.1,57.7c1.8-0.3,3.7-0.5,5.6-0.5h1.1
		c-7.2-36.4-39.4-63.9-77.9-63.9c-43.8,0-79.3,35.5-79.3,79.3c0,19.8,7.4,38.9,20.9,53.6c3.1,3.2,6.4,6.4,10,9.2
		c2.3,1.8,4.5,3.4,6.8,4.8c3.2,1.9,6.6,3.7,10.1,5.3c2.9,1.3,6,2.4,8.8,3.2c3.5,1,6.9,1.8,10.3,2.3c2.9,0.5,6.1,0.8,9.3,0.8h0.2h2.9
		c2.3,0,4.5-0.2,6.9-0.3c3.5-0.3,7.1-0.8,10.6-1.6c3.1-0.6,6.1-1.6,9-2.6c2.3-0.8,4.7-1.8,6.8-2.7c2.7-1.3,5.5-2.7,8-4.3
		c2.1-1.3,4-2.6,6-4c2.3-1.8,4.5-3.5,6.8-5.6c1.8-1.8,3.5-3.5,5.3-5.5c-1.9-1.1-3.9-2.3-5.5-3.7C505,553.9,503.2,555.6,501.4,557.4
		L501.4,557.4z"/>
	<path class="st1" d="M529.6,494.4c-16.4,0-29.8,13.3-29.8,29.8c0,16.4,13.3,29.8,29.8,29.8c16.4,0,29.8-13.3,29.8-29.8
		C559.2,507.7,546,494.4,529.6,494.4z M548.7,514.6l-26.5,26.5c-0.6,0.6-1.4,1-2.3,1c-0.8,0-1.6-0.3-2.3-1l-10.5-10.5
		c-1.3-1.3-1.3-3.2,0-4.5s3.2-1.3,4.5,0l8,8l24.3-24.3c1.3-1.3,3.2-1.3,4.5,0C550,511.4,550,513.5,548.7,514.6L548.7,514.6z"/>
</g>
</svg>
