<?xml version="1.0" encoding="utf-8"?>
<!-- Generator: Adobe Illustrator 23.0.5, SVG Export Plug-In . SVG Version: 6.00 Build 0)  -->
<svg version="1.1" id="Layer_1" xmlns="http://www.w3.org/2000/svg" xmlns:xlink="http://www.w3.org/1999/xlink" x="0px" y="0px"
	 viewBox="0 0 752 752" style="enable-background:new 0 0 752 752;" xml:space="preserve">
<style type="text/css">
	.st0{fill:#32B066;}
</style>
<path class="st0" d="M460.9,162.9c-26,0-47.3,21.4-47.3,47.4c0,18.1,10.4,34.1,25.4,42l-6.2,24.3H314.3l0,0c-0.5,0-1,0-1.5,0
	c-3.8,0.2-7.3,1.9-9.8,4.7c-2.5,2.8-3.8,6.5-3.6,10.3c0.2,3.8,1.9,7.3,4.7,9.8c2.8,2.5,6.5,3.8,10.3,3.6h111.2l-9.9,38.2
	c-45.9,2.8-85.1,31-103.8,70.7h-30.6l0,0c-0.5,0-1,0-1.5,0c-6.1,0.6-11.1,5-12.4,11l-26,112.1h-21.7c-3.8-0.1-7.5,1.4-10.2,4.1
	c-2.7,2.7-4.2,6.3-4.2,10.1s1.5,7.4,4.2,10.1c2.7,2.7,6.4,4.1,10.2,4.1h33.1l0,0c6.7,0,12.4-4.6,13.9-11.1l25.9-112h9.9
	c-1.5,7.7-2.4,15.6-2.4,23.7c0,67.8,55.2,123.1,123,123.1s123-55.3,123-123.1c0-44.6-23.8-83.8-59.4-105.4l18.3-69.9h26.9l0,0
	c3.8,0.1,7.5-1.4,10.2-4.1s4.2-6.3,4.2-10.1c0-3.8-1.5-7.4-4.2-10.1s-6.4-4.1-10.2-4.1H494c-0.5,0-1,0-1.5,0
	c-5.9,0.6-10.8,4.8-12.3,10.5l-20,75.9c-5.2-1.7-10.5-3-16-4l22.8-87.5c23.1-3.1,41.1-23.2,41.1-47.1
	C508.2,184.3,486.9,162.9,460.9,162.9L460.9,162.9z M460.9,191.3c10.6,0,18.9,8.3,18.9,18.9s-8.3,18.9-18.9,18.9
	s-18.9-8.3-18.9-18.9S450.3,191.3,460.9,191.3z M423.1,371.3c52.4,0,94.6,42.2,94.6,94.7s-42.2,94.7-94.6,94.7s-94.6-42.2-94.6-94.7
	S370.7,371.3,423.1,371.3L423.1,371.3z M423.1,390.2c-41.6,0-75.7,34.1-75.7,75.8s34.1,75.8,75.7,75.8s75.7-34.1,75.7-75.8
	C498.8,424.3,464.7,390.2,423.1,390.2z M423.1,418.6c26.3,0,47.3,21,47.3,47.4s-21,47.4-47.3,47.4s-47.3-21-47.3-47.4
	S396.8,418.6,423.1,418.6z"/>
</svg>
