<?xml version="1.0" encoding="utf-8"?>
<!-- Generator: Adobe Illustrator 23.0.5, SVG Export Plug-In . SVG Version: 6.00 Build 0)  -->
<svg version="1.1" id="Layer_1" xmlns="http://www.w3.org/2000/svg" xmlns:xlink="http://www.w3.org/1999/xlink" x="0px" y="0px"
	 viewBox="0 0 232 387" style="enable-background:new 0 0 232 387;" xml:space="preserve">
<style type="text/css">
	.st0{fill-rule:evenodd;clip-rule:evenodd;fill:#32B066;}
</style>
<path class="st0" d="M152.3,55.4c0,10.9-3.8,20.1-11.4,27.7c-7.6,7.4-16.7,11.1-27.5,11.1c-10.9,0-20.1-3.7-27.7-11.1
	c-7.6-7.6-11.4-16.8-11.4-27.7c0-10.7,3.8-19.8,11.4-27.2c7.6-7.6,16.8-11.4,27.7-11.4c10.7,0,19.9,3.8,27.5,11.4
	C148.5,35.6,152.3,44.7,152.3,55.4z M55.9,104.9v-0.2h122v0.2h0.2c4.1,0,7.7,1.2,10.9,3.6c3,2.2,5.1,5.2,6.4,9l0.5,1.9l0.2,0.2
	l26,96.9h-0.2l0.2,2.6c0,4.4-1.7,8.3-5,11.6c-3.2,3.2-7,4.7-11.6,4.7c-3.5,0-6.6-1-9.5-2.8c-2.7-1.9-4.7-4.4-5.9-7.6v0.2L171,153.9
	c-0.9-2.7-2.7-4-5.2-4c-1.4,0-2.6,0.6-3.6,1.7c-1.1,1-1.7,2.1-1.7,3.6l0.2,1.4v0.2l30.5,113.4c0.5,0.9,0.7,2.1,0.7,3.3l0.2,0.2h-0.2
	l0.2,0.2c0,2.5-0.9,4.7-2.6,6.4c-1.7,1.6-3.9,2.4-6.4,2.4h-22.7v75.5c0,5.2-1.9,9.7-5.7,13.5c-3.6,3.6-8.1,5.4-13.5,5.4
	c-5.2,0-9.7-1.8-13.5-5.4c-3.8-3.8-5.7-8.3-5.7-13.5v-75.5h-10.7v75.5c0,5.2-1.9,9.7-5.7,13.5c-3.8,3.6-8.3,5.4-13.5,5.4
	c-5.4,0-9.9-1.8-13.7-5.4c-3.6-3.8-5.4-8.3-5.4-13.5v-75.5H50.5c-2.5,0-4.7-0.8-6.4-2.4c-1.7-1.7-2.6-3.9-2.6-6.4v-0.5
	c0-0.9,0.3-2.1,0.9-3.3L73,156.2v-0.7l0.2-0.2l-0.2-0.5v-0.7c-0.8-2.8-2.5-4.3-5.2-4.3s-4.3,1.4-5,4.3h-0.2v-0.2l-18.9,71.3
	l-0.2-0.2c-1.1,3-3,5.5-5.7,7.6c-2.8,1.9-6,2.8-9.5,2.8c-4.7,0-8.6-1.6-11.6-4.7c-3.3-3.3-5-7.2-5-11.6l0.2-2.6h-0.2l26-96.9v-0.2
	l0.2-1.9c1.3-3.8,3.5-6.8,6.6-9C48.1,106.1,51.8,104.9,55.9,104.9L55.9,104.9z"/>
</svg>
