<?xml version="1.0" encoding="UTF-8"?>
<svg width="752pt" height="752pt" version="1.1" viewBox="0 0 752 752" xmlns="http://www.w3.org/2000/svg">
 <g>
  <path d="m497.77 539.48h-11.395v34.227h11.41c9.4414-0.015625 17.102-7.6562 17.102-17.113-0.003906-9.4492-7.6602-17.105-17.117-17.113z"/>
  <path d="m265.61 539.48-28.5 17.098 28.5 17.117h209.37v-34.223z"/>
  <path d="m558.66 178.3h-365.3c-16.801 0-30.465 13.605-30.465 30.438v273.21c0 16.832 13.605 30.426 30.445 30.426h365.32c16.801 0 30.461-13.598 30.461-30.426v-273.21c-0.003907-16.832-13.613-30.438-30.457-30.438zm-0.007812 83.516v220.12h-365.32v-144.71h0.019531v-73.777h365.31v23.031z"/>
  <path d="m460.49 298.48c10.637-12.133 28.656-11.27 40.949-8.1992 7.8672 1.9648 13.086 7.5156 13.945 8.7266 2.4961 3.4844 7.2188 10.812 6.207 14.977 0 0-1.9648 3.3945-0.26953 5.7031 1.7109 2.2891 9.1133 12.078 9.1133 12.078s1.7812 2.0352-0.85547 3.5742c-2.6289 1.5195-2.8789 2.4727-2.8789 4.0078 0 1.5195 2.3711 4.7656 0.074219 5.6875 0 0-2.3711 0.85547-1.7695 1.457 0.57813 0.59375 2.3711 1.6914 2.3711 1.6914s0.84375 1.3633-0.67578 2.6328c-1.5391 1.2852-2.2969 2.4766-2.2969 4.3398 0 1.875 0.9375 4.5195 1.1797 5.3594 0.26562 0.87109 1.375 5.0312-5.9531 6.3867-7.3125 1.3594-8.6836-1.0938-10.723 6.2148 0 0-0.34766 7.7383-0.34766 8.582h-32.473v-9.0898s-0.19531-4.9453-1.2891-8.5117l-2.3711-6.2148s-1.2891-3.6523-5.8789-5.4414c-4.5938-1.7852-11.312-8.0898-12.672-9.9609 0-0.003906-12.059-22.703 6.6133-44z"/>
  <path d="m224.47 429.37h188.5c4.0352 0 7.3203-3.2773 7.3203-7.3359s-3.2852-7.3359-7.3203-7.3359h-188.5c-4.0664 0-7.3398 3.2734-7.3398 7.3359 0 4.0508 3.2734 7.3359 7.3398 7.3359z"/>
  <path d="m224.47 459.91h188.5c4.0352 0 7.3203-3.2734 7.3203-7.3203 0-4.0742-3.2852-7.3516-7.3203-7.3516h-188.5c-4.0664 0-7.3398 3.2734-7.3398 7.3516 0 4.043 3.2734 7.3203 7.3398 7.3203z"/>
  <path d="m217.13 289.78h203.16v63.84h-203.16z"/>
  <path d="m224.47 398.83h188.5c4.0352 0 7.3203-3.2852 7.3203-7.3438s-3.2852-7.3281-7.3203-7.3281h-188.5c-4.0664 0-7.3398 3.2617-7.3398 7.3281 0 4.0586 3.2734 7.3438 7.3398 7.3438z"/>
  <path d="m452.19 459.91h75.355c4.0391 0 7.3281-3.2852 7.3281-7.3359 0-4.0664-3.2852-7.3359-7.3281-7.3359h-75.355c-4.0664 0-7.3516 3.2617-7.3516 7.3359 0 4.0469 3.2852 7.3359 7.3516 7.3359z"/>
  <path d="m452.19 429.37h75.355c4.0391 0 7.3281-3.2773 7.3281-7.3359s-3.2852-7.3359-7.3281-7.3359h-75.355c-4.0664 0-7.3516 3.2734-7.3516 7.3359 0 4.0508 3.2852 7.3359 7.3516 7.3359z"/>
 </g>
</svg>
