<?xml version="1.0" encoding="UTF-8"?>
<svg width="752pt" height="752pt" version="1.1" viewBox="0 0 752 752" xmlns="http://www.w3.org/2000/svg">
 <g>
  <path d="m596.51 482.56-7.6758-10.266c-10.543-14.059-29.508-18.684-45.414-11.191l-116.18 55.035-22.938-6.9375h1.3867c20.441 0 37-16.559 37-37v-7.3984c0-4.0703-3.3281-7.3984-7.3984-7.3984h-77.883c-8.7891 0-17.391 3.1445-24.051 8.8789l-19.055 16.371c-14.059 12.023-32.375 17.668-50.688 15.633l-101.38-11.289c-4.0703-0.46094-7.6758 2.4961-8.1406 6.5664-0.46094 4.0703 2.4961 7.6758 6.5664 8.1406l101.29 11.285c22.383 2.4961 44.859-4.4414 61.973-19.055l19.055-16.371c4.0703-3.4219 9.1562-5.3633 14.43-5.3633h70.391c0 12.211-9.9883 22.199-22.199 22.199h-51.797c-4.0703 0-7.3984 3.3281-7.3984 7.3984 0 3.2383 2.1289 6.1055 5.2734 7.1211l73.996 22.199c1.7578 0.55469 3.6055 0.37109 5.2734-0.37109l118.77-56.238c9.5273-4.4414 20.902-1.6641 27.285 6.7539l2.7734 3.6992-154.47 94.07c-4.2539 2.5898-9.25 3.6992-14.152 3.0508l-109.42-12.855c-4.5312-0.55469-9.1562-0.64844-13.781-0.46094h-0.46094l-126.91 14.52c-4.0703 0.46094-6.9375 4.1641-6.5664 8.1406 0.46094 4.0703 4.1641 6.9375 8.1406 6.5664l126.72-14.43c3.6992-0.18359 7.3984-0.09375 11.098 0.37109l109.42 12.855c8.2305 0.92578 16.465-0.83203 23.586-5.1797l161.5-98.324c3.5156-2.1289 4.625-6.6602 2.4961-10.176-0.18359-0.18359-0.27344-0.36719-0.46094-0.55078z"/>
  <path d="m195.45 212.75 17.758 7.5859c27.285 11.656 56.609 17.668 86.301 17.668 31.266 0 62.156-6.6602 90.645-19.609 48.098-22.016 102.86-24.328 152.71-6.5664l8.3242 2.9609c3.8867 1.3867 8.0469-0.64844 9.4336-4.5312 1.3867-3.8867-0.64844-8.0469-4.5312-9.4336l-8.3242-2.9609c-53.461-19.055-112.2-16.465-163.72 7.0312-52.352 23.766-112.2 24.41-165.01 1.8438l-17.758-7.5859c-3.793-1.5742-8.1406 0.18359-9.7109 3.8867-1.5742 3.7891 0.18359 8.1367 3.8828 9.7109z"/>
  <path d="m195.45 181.48 17.758 7.5859c27.289 11.656 56.609 17.668 86.301 17.668 31.266 0 62.156-6.6602 90.645-19.609 48.098-22.016 102.86-24.328 152.71-6.5664l8.3242 2.9609c3.8867 1.3867 8.0469-0.64844 9.4336-4.5312 1.3867-3.8867-0.64844-8.0469-4.5312-9.4336l-8.3242-2.9609c-53.461-19.055-112.2-16.465-163.72 7.0312-52.262 23.68-112.2 24.328-164.92 1.7578l-17.758-7.4961c-3.793-1.5742-8.1406 0.18359-9.7109 3.8867-1.6641 3.6953 0.09375 8.043 3.793 9.707z"/>
  <path d="m556.09 236.15-8.3242-2.9609c-53.461-19.055-112.2-16.465-163.72 7.0312-52.262 23.68-112.2 24.328-164.92 1.7578l-17.758-7.4961c-3.793-1.5742-8.1406 0.09375-9.7109 3.8867-0.37109 0.92578-0.55469 1.9414-0.55469 2.9609v177.59c0 3.1445 1.9414 5.918 4.9023 6.9375l27.195 9.7109c50.871 18.223 106.74 16.926 156.69-3.5156l12.949-5.2734c46.434-19.055 98.324-20.258 145.68-3.5156l12.672 4.4414c3.8867 1.3867 8.0469-0.64844 9.4336-4.5312 0.27734-0.83203 0.46094-1.6641 0.46094-2.4961v-177.59c-0.089843-3.1484-2.0312-5.9219-4.9922-6.9375zm-335.48 49.484c0-4.0703 3.3281-7.3984 7.3984-7.3984 0.83203 0 1.7578 0.18359 2.4961 0.46094l5.2734 1.9414c16.648 6.1055 34.133 9.7109 51.891 10.82 4.0703 0.27734 7.2148 3.793 6.9375 7.8633-0.27734 4.0703-3.793 7.2148-7.8633 6.9375-17.48-1.1094-34.688-4.5312-51.336-10.082v26.453c0 4.0703-3.3281 7.3984-7.3984 7.3984-4.0703 0-7.3984-3.3281-7.3984-7.3984zm73.996 125.43c-0.46094 4.0703-4.0703 7.0312-8.1406 6.5664-15.539-1.6641-30.895-5.1797-45.691-10.453l-15.262-5.457c-2.9609-1.0156-4.9023-3.8867-4.9023-6.9375v-27.75c0-4.0703 3.3281-7.3984 7.3984-7.3984 4.0703 0 7.3984 3.3281 7.3984 7.3984v22.477l10.359 3.6992c13.688 4.9023 27.84 8.1406 42.27 9.7109 4.0703 0.46484 6.9414 4.168 6.5703 8.1445zm22.754-80.473c4.7188-32.375 34.688-54.758 67.059-50.133 4.0703 0.55469 6.8438 4.3477 6.2891 8.3242-0.55469 4.0703-4.3477 6.8438-8.3242 6.2891-2.1289-0.27734-4.2539-0.46094-6.3828-0.46094-22.016 0.09375-40.699 16.281-43.938 38.016-0.55469 4.0703-4.3477 6.8438-8.418 6.2891-4.0664-0.55469-6.8398-4.3477-6.2852-8.3242zm117.29 16.836c-4.3477 29.043-29.23 50.688-58.645 50.781-12.117 0-23.957-3.6992-33.855-10.637-3.3281-2.3125-4.1641-6.9375-1.8516-10.266s6.9375-4.1641 10.266-1.8516c7.3984 5.1797 16.281 7.9531 25.344 7.9531 22.016-0.09375 40.699-16.281 43.938-38.016 0.55469-4.0703 4.3477-6.8438 8.418-6.2891 4.0742 0.55078 6.9414 4.3438 6.3867 8.3242zm22.754-23.219c0 4.0703-3.3281 7.3984-7.3984 7.3984s-7.3984-3.3281-7.3984-7.3984v-19.148l-39.125 39.125c-2.8672 2.8672-7.5859 2.8672-10.453 0l-17.023-16.922-61.324 61.324c-2.8672 2.8672-7.5859 2.8672-10.453 0-2.8672-2.8672-2.8672-7.5859 0-10.453l66.598-66.598c2.8672-2.8672 7.5859-2.8672 10.453 0l16.926 16.926 33.945-33.945h-19.145c-4.0703 0-7.3984-3.3281-7.3984-7.3984 0-4.0703 3.3281-7.3984 7.3984-7.3984h37c4.0703 0 7.3984 3.3281 7.3984 7.3984zm73.996 59.199c0 4.0703-3.3281 7.3984-7.3984 7.3984-0.73828 0-1.4805-0.09375-2.2188-0.37109l-11.285-3.6055c-14.984-4.8086-30.43-7.5859-46.062-8.5078-4.0703-0.18359-7.2148-3.6992-6.9375-7.7695 0.27734-4.0703 3.6992-7.2148 7.7695-6.9375 16.926 0.92578 33.668 3.9766 49.762 9.1562l1.6641 0.55469v-20.996c0-4.0703 3.3281-7.3984 7.3984-7.3984 4.0703 0 7.3984 3.3281 7.3984 7.3984l0.003906 31.078zm0-75.57c0 4.0703-3.3281 7.3984-7.3984 7.3984-4.0703 0-7.3984-3.3281-7.3984-7.3984v-31.449c-16.559-4.7188-33.668-7.1211-50.965-7.1211h-0.83203c-4.0703 0-7.3984-3.3281-7.3984-7.3984 0-4.0703 3.3281-7.3984 7.3984-7.3984 19.887-0.09375 39.68 2.7734 58.734 8.5078l2.5898 0.73828c3.1445 0.92578 5.2734 3.793 5.2734 7.1211z"/>
 </g>
</svg>
