<?xml version="1.0" encoding="utf-8"?>
<!-- Generator: Adobe Illustrator 23.0.5, SVG Export Plug-In . SVG Version: 6.00 Build 0)  -->
<svg version="1.1" id="Layer_1" xmlns="http://www.w3.org/2000/svg" xmlns:xlink="http://www.w3.org/1999/xlink" x="0px" y="0px"
	 viewBox="0 0 752 752" style="enable-background:new 0 0 752 752;" xml:space="preserve">
<style type="text/css">
	.st0{fill:#32B066;}
</style>
<g>
	<path class="st0" d="M386.1,400.9c0.3-7.9,0.9-16.4,0.9-25.3c0-20.5-16.7-37.3-37.3-37.3c-20.2,0-36.6,16.1-37.3,36.9
		c-0.3,7.9-0.6,15.5-0.6,23v8.5c0,2.2,0,4.4,0.3,6.6c0,2.5,0.3,4.7,0.3,7.3c0.3,4.7,0.6,9.5,0.9,14.2c0.3,4.7,0.9,9.2,1.6,13.6
		c0.3,1.6,0.6,3.5,0.6,5.1c0,0.9,0.3,1.9,0.3,2.8c0.3,1.3,0.3,2.2,0.6,3.5c0.3,1.3,0.3,2.2,0.6,3.5c0.3,1.3,0.3,2.2,0.6,3.5
		c0.3,0.9,0.3,1.9,0.6,2.8v0.3c0,0.3,0.3,0.6,0.3,0.9c0,0.3,0,0.6,0.3,0.6c0.3,1.6,0.6,3.2,0.9,4.4v0.3c0,0.3,0,0.6,0.3,0.9
		c0.6,1.9,0.9,3.8,1.6,5.7c0,0.3,0.3,0.6,0.3,0.9c0.6,2.2,1.3,4.1,1.9,6c0.3,0.6,0.3,1.6,0.6,2.2c0.3,1.3,0.6,2.5,1.3,3.5
		c0.3,0.6,0.3,1.3,0.6,1.6c0.6,1.6,1.3,3.5,1.9,5.1c3.2,0.6,5.7,0.9,8.2,1.3c2.2,0.3,4.7,0.3,7.6,0.6c-15.5-33.8-21.2-74.5-19-128.2
		c0.9-13.3,10.7-23.4,23-23.4c12.9,0,23,10.4,23,23c0,8.2-0.3,16.1-0.9,24.6v0.6c-1.3,31.3-2.8,60.6,23.7,94.7
		c1.3-0.6,2.5-0.9,3.8-1.6c3.2-1.3,6.3-2.8,9.8-4.7C383,458.1,384.2,431.6,386.1,400.9L386.1,400.9z"/>
	<path class="st0" d="M303.1,495.3c1.9,0.6,4.1,1.6,6.3,2.2c-14.5-51.8-13.6-109.9-13.3-120.9v-0.3c0-29.7,24-53.7,53.4-53.7
		c29.4,0,53.4,24,53.4,53.4c0,6.3-0.3,12.6-0.6,19.3c-1.3,27.2-2.8,57.8,20.2,86.2c0.3-0.3,0.6-0.3,0.9-0.6
		c3.5-2.5,7.3-5.4,10.4-8.2c-19.9-24.3-18.6-49.9-17.1-77c0.3-6.6,0.6-13.3,0.6-19.9c0-37.3-30.3-67.9-67.9-67.9
		c-37.3,0-67.9,30.3-67.9,67.9v1.3c-0.3,18.6-0.3,66.9,11.1,113.7C296.4,492.5,299.9,494.1,303.1,495.3L303.1,495.3z"/>
	<path class="st0" d="M424.6,310.6c-18.9-20.5-47-32.5-75.1-32.5c-53.7,0-97.9,43.9-98.2,97.9c0,1.6,0,42,6.9,89.7l0.3,0.3
		c0.3,0.3,0.3,0.3,0.6,0.6c3.8,3.8,7.9,7.3,12.3,10.7c1.3,0.9,2.5,1.9,4.1,3.2c-9.2-53.4-9.5-103.9-9.5-104.2
		c0-46.1,37.6-83.7,83.7-83.7c24,0,48.3,10.4,64.7,28.1c13.9,15.5,20.5,35,18.9,54.9c-0.3,2.2-0.6,4.4-0.6,6.6
		c-0.3,2.2-0.6,4.1-0.6,6.3c-0.6,5.7-1.3,11.7-1.6,17.4c2.2-14.2,8.5-26.8,17.7-36.9C447.7,347.6,439.8,327.4,424.6,310.6
		L424.6,310.6z"/>
	<path class="st0" d="M356.7,392.1v-16.4c0-3.8-3.5-7.3-7.3-7.3c-3.8,0-7.3,3.5-7.3,7.3v16.1c-0.6,36.6-0.9,71,23,111.1
		c1.9-0.3,4.1-0.6,6-0.9c2.8-0.6,6-1.3,9.5-1.9C355.8,461.6,356.1,427.8,356.7,392.1L356.7,392.1z"/>
	<path class="st0" d="M349.5,247.8c-70.7,0-128.2,57.5-128.2,128.2c0,23.7,6.6,47,18.9,66.9l0.3,0.3c-3.8-30.9-5.7-56.8-5.7-68.5
		c0-30.6,11.7-59,33.2-80.5c21.8-21.5,50.5-33.2,80.5-33.2c30.6,0,59,11.7,80.5,33.2c17.1,17.4,28.1,39.5,31.9,62.8
		c4.4-2.8,9.2-5.4,13.9-7.3C463.1,292,411.4,247.8,349.5,247.8L349.5,247.8z"/>
	<path class="st0" d="M444.8,482.1c-4.1,3.8-8.5,7.3-13.6,10.7c-3.8,2.5-7.6,5.1-11.4,7.3c-5.4,3.2-10.7,5.7-16.1,7.9
		c-4.1,1.9-8.2,3.2-12.3,4.4c-5.7,1.9-11.7,3.2-18,4.4c-6.6,1.3-13.3,1.9-19.9,1.9h-1.3h-3.8c-4.7,0-9.5-0.3-14.2-0.6
		c-5.7-0.6-11.4-1.6-17.1-2.8c-6.6-1.6-13.3-3.5-19.9-6c-5.7-2.2-10.7-4.7-15.8-7.3c-6.9-3.8-13.6-8.2-19.9-12.9
		c-4.7-3.8-9.5-7.9-13.6-12c-7.6-7.9-14.5-16.4-20.5-25.9c-13.9-22.4-21.2-48.3-21.2-74.8c0-78.6,64.1-142.7,142.7-142.7
		c68.5,0,126,48.6,139.5,113.3c3.5-0.6,7.3-0.9,11.1-0.9h2.2c-14.2-71.4-77.4-125.3-152.8-125.3c-85.9,0-155.6,69.8-155.6,155.6
		c0,38.8,14.5,76.4,41,105.1c6,6.3,12.6,12.6,19.6,18c4.4,3.5,8.8,6.6,13.3,9.5c6.3,3.8,12.9,7.3,19.9,10.4
		c5.7,2.5,11.7,4.7,17.4,6.3c6.9,1.9,13.6,3.5,20.2,4.4c5.7,0.9,12,1.6,18.3,1.6h0.3h5.7c4.4,0,8.8-0.3,13.6-0.6
		c6.9-0.6,13.9-1.6,20.8-3.2c6-1.3,12-3.2,17.7-5.1c4.4-1.6,9.2-3.5,13.3-5.4c5.4-2.5,10.7-5.4,15.8-8.5c4.1-2.5,7.9-5.1,11.7-7.9
		c4.4-3.5,8.8-6.9,13.3-11.1c3.5-3.5,6.9-6.9,10.4-10.7c-3.8-2.2-7.6-4.4-10.7-7.3C451.8,475.1,448.3,478.6,444.8,482.1L444.8,482.1
		z"/>
	<path class="st0" d="M500.1,358.3c-32.2,0-58.4,26.2-58.4,58.4c0,32.2,26.2,58.4,58.4,58.4c32.2,0,58.4-26.2,58.4-58.4
		C558.2,384.5,532.3,358.3,500.1,358.3z M537.6,398.1l-52.1,52.1c-1.3,1.3-2.8,1.9-4.4,1.9c-1.6,0-3.2-0.6-4.4-1.9l-20.5-20.5
		c-2.5-2.5-2.5-6.3,0-8.8s6.3-2.5,8.8,0l15.8,15.8l47.7-47.7c2.5-2.5,6.3-2.5,8.8,0C540.2,391.8,540.2,395.9,537.6,398.1
		L537.6,398.1z"/>
</g>
</svg>
