<?xml version="1.0" encoding="UTF-8"?>
<svg width="752pt" height="752pt" version="1.1" viewBox="0 0 752 752" xmlns="http://www.w3.org/2000/svg">
 <defs>
  <clipPath id="a">
   <path d="m139.21 165h473.58v419h-473.58z"/>
  </clipPath>
 </defs>
 <g clip-path="url(#a)">
  <path d="m584.04 379.7c-7.0547 0-13.523 0.61328-16.773 1.1172-2.5391 0.39844-5.0703 0.88281-7.5469 1.5352-0.74219 0.18359-1.457 0.46094-2.1836 0.69531 2.1992-4.7344 3.4609-9.9844 3.4609-15.535 0-20.395-16.594-36.992-36.996-36.992s-37 16.594-37 36.992c0 20.402 16.598 37.004 37.004 37.004 2.1211 0 4.1875-0.21875 6.2148-0.5625l-26.75 25.699c-9.1797 8.7578-20.672 14.402-33.09 16.492 10.027-6.6758 16.621-17.871 16.621-30.543 0-9.9531-3.9961-19.293-11.246-26.297l-0.19531-0.1875c-7.2734-6.7695-16.742-10.5-26.668-10.5h-14.289c-21.816 0.03125-43.875 2.6328-65.996 7.6875v-17.707h-147.99v-188.69h51.188c4.8828 0 7.1016 0.51953 7.9844 0.82422 0.039062 0.65234 0.019531 1.6172 0.003906 2.3828l-0.011718 7.8906h-11.066c-12.242 0-22.199 9.957-22.199 22.199v59.199c0 12.242 9.957 22.199 22.199 22.199h11.098v3.6992c0 4.0859 3.3125 7.3984 7.3984 7.3984s7.3984-3.3125 7.3984-7.3984v-3.6992h11.098c12.242 0 22.199-9.957 22.199-22.199l0.003906-59.199c0-12.242-9.957-22.199-22.199-22.199h-11.133l0.011719-7.6055c0.074219-3.7188 0.16797-8.8086-3.8945-12.953-3.6719-3.7422-9.3203-5.3398-18.891-5.3398h-57.629c-0.16406 0-0.31641 0.039063-0.48047 0.050781-0.16016-0.011718-0.31641-0.050781-0.48047-0.050781-4.0859 0-7.3984 3.3125-7.3984 7.3984v196.09h-36.836c-16.438 0-29.762 13.426-29.762 29.98v66.215h0.042968c-0.039062 12.371-0.042968 26.695-0.042968 26.695 0.039062 15.91 13.359 28.805 29.758 28.805h0.042969l18.297-0.023437v55.52c0 4.0859 3.3125 7.3984 7.3984 7.3984 4.0859 0 7.3984-3.3125 7.3984-7.3984v-14.801h301.06c4.0859 0 7.3984-3.3125 7.3984-7.3984s-3.3125-7.3984-7.3984-7.3984h-301.05v-25.938l355.19-0.43359-0.003906 55.969c0 4.0859 3.3125 7.3984 7.3984 7.3984 4.0859 0 7.3984-3.3125 7.3984-7.3984v-55.988l3.3477-0.003907c20.551 0 37.352-16.137 37.352-35.988v-91.547c0-1.6094-0.3125-3.0195-0.875-4.2617-3.0234-6.625-16.25-8.3008-27.879-8.3008zm-311.63-114.7h-11.098v-14.801h11.098c4.0859 0 7.3984 3.3125 7.3984 7.3984 0 4.0859-3.3125 7.4023-7.3984 7.4023zm0-29.602h-11.098v-14.801h11.098c4.0859 0 7.3984 3.3125 7.3984 7.3984 0 4.0898-3.3125 7.4023-7.3984 7.4023zm81.395 211.68h-199.79v-48.508c0-8.3711 6.7109-15.18 14.961-15.18h36.836v25.898c0 4.0859 3.3125 7.3984 7.3984 7.3984 4.0859 0 7.3984-3.3125 7.3984-7.3984v-25.898h133.2zm95.09-9.2695h-80.289v-36.273c22.16-5.3281 44.23-8.0938 65.996-8.125h14.289c6.2188 0 12.062 2.3281 16.582 6.5312 4.3242 4.1719 6.7305 9.7461 6.7305 15.652 0 12.25-10.449 22.215-23.309 22.215zm75.109-48.102c-12.258 0-22.203-9.9648-22.203-22.203 0-12.25 9.9453-22.191 22.203-22.191 12.25 0 22.195 9.9414 22.195 22.191 0 12.238-9.9492 22.203-22.195 22.203z"/>
 </g>
 <path d="m538.79 553.59c0 4.0859-3.3125 7.3984-7.3984 7.3984-4.0859 0-7.3984-3.3125-7.3984-7.3984s3.3125-7.3984 7.3984-7.3984c4.0859 0 7.3984 3.3125 7.3984 7.3984"/>
</svg>
