<?xml version="1.0" encoding="UTF-8"?>
<svg width="752pt" height="752pt" version="1.1" viewBox="0 0 752 752" xmlns="http://www.w3.org/2000/svg">
 <path d="m519.26 234.41c0 10.887-3.793 20.129-11.367 27.703-7.5781 7.418-16.73 11.129-27.465 11.129-10.898 0-20.129-3.707-27.715-11.129-7.5781-7.5781-11.355-16.816-11.355-27.703 0-10.742 3.7852-19.816 11.355-27.23 7.5859-7.5781 16.816-11.367 27.715-11.367 10.73 0 19.887 3.793 27.465 11.367 7.5742 7.4141 11.367 16.488 11.367 27.23zm-350.92 54.219c3.4648-3.4648 7.7344-5.2109 12.781-5.2109v-0.24219l138.77 0.003906v0.24219c4.5781 0.47266 8.4453 2.4453 11.598 5.918 3.1523 3.3086 4.7344 7.3438 4.7344 12.082v109.62c0 4.7344-1.6562 8.6016-4.9688 11.609-3.0078 2.9961-6.793 4.4961-11.367 4.4961-4.5742 0-8.4453-1.4961-11.609-4.4961-2.9961-3.0078-4.4961-6.8711-4.4961-11.609h-0.24219l0.007812-76.477c0-1.582-0.47266-2.8516-1.4141-3.793-1.1094-1.1094-2.3672-1.6562-3.793-1.6562-1.582 0-2.8398 0.54297-3.7852 1.6562-1.1094 0.94141-1.668 2.2109-1.668 3.793v200.79c0 5.2188-1.8125 9.6289-5.4375 13.266-3.6367 3.793-8.1328 5.6797-13.508 5.6797-5.2109 0-9.6289-1.8867-13.254-5.6797-3.793-3.6367-5.6875-8.0469-5.6875-13.266v-101.11h-0.22656c0-1.582-0.47266-2.8398-1.4258-3.7852-1.0977-1.1094-2.2812-1.668-3.5508-1.668-1.582 0-2.8398 0.55469-3.7852 1.668-1.1094 0.94141-1.668 2.2031-1.668 3.7852h-0.22656v101.11c0 5.2188-1.8945 9.6289-5.6875 13.266-3.6289 3.793-8.0469 5.6797-13.254 5.6797-5.375 0-9.8711-1.8867-13.496-5.6797-3.6367-3.6367-5.4453-8.0469-5.4453-13.266l-0.003906-200.79c-0.15625-1.4258-0.71094-2.6094-1.6562-3.5508-1.1094-1.1094-2.3672-1.668-3.793-1.668-1.2695 0-2.4531 0.55469-3.5508 1.668-0.94141 0.94141-1.4961 2.125-1.6562 3.5508v76.473c0 4.5781-1.4961 8.4453-4.5039 11.609-3.1523 3-7.0195 4.5-11.598 4.5s-8.4453-1.4961-11.598-4.4961c-3.1641-3.1641-4.7344-7.0273-4.7344-11.609l-0.24219 0.003906v-109.63c0.15625-5.0586 1.9688-9.3164 5.4453-12.793zm254.55-4.7344v-0.23047h121.95v0.23047h0.23047c4.1055 0 7.7422 1.1836 10.898 3.5508 2.9961 2.2109 5.1328 5.2109 6.3945 8.9961l0.47266 1.8945 0.24219 0.23047 26.043 96.859h-0.24219l0.24219 2.5977c0 4.4219-1.6562 8.2891-4.9766 11.609-3.1523 3.1523-7.0195 4.7344-11.598 4.7344-3.4648 0-6.6289-0.95312-9.4727-2.8398-2.6797-1.8945-4.6523-4.4219-5.918-7.5859v0.24219l-19.184-71.277c-0.94141-2.6797-2.6797-4.0273-5.2109-4.0273-1.4141 0-2.6016 0.55469-3.5508 1.6562-1.0977 0.95312-1.6562 2.1367-1.6562 3.5508l0.24219 1.4258v0.24219l30.543 113.42c0.47266 0.94141 0.71094 2.0547 0.71094 3.3086l0.23047 0.24219-0.23438 0.003906 0.23047 0.24219c0 2.5234-0.86328 4.6523-2.6016 6.3945-1.7383 1.5742-3.8633 2.3672-6.3945 2.3672l-22.727-0.003906v75.531c0 5.2109-1.8945 9.7148-5.6797 13.496-3.6367 3.6367-8.1328 5.4453-13.508 5.4453-5.2109 0-9.7031-1.8125-13.496-5.4453-3.7852-3.7852-5.6797-8.2891-5.6797-13.496l0.003906-75.531h-10.656v75.531c0 5.2109-1.8945 9.7148-5.6875 13.496-3.7852 3.6367-8.2891 5.4453-13.496 5.4453-5.3672 0-9.9453-1.8125-13.734-5.4453-3.6289-3.7852-5.4375-8.2891-5.4375-13.496v-75.531h-22.496c-2.5352 0-4.6602-0.79688-6.4023-2.3672-1.7305-1.7383-2.6016-3.8633-2.6016-6.3945v-0.48438c0-0.94141 0.3125-2.0547 0.94141-3.3086l30.551-113.9v-0.69922l0.24219-0.23828-0.23047-0.47266v-0.71094c-0.79688-2.8398-2.5352-4.2617-5.2188-4.2617-2.6836 0-4.3398 1.4258-4.9688 4.2617l-0.23828-0.003906v-0.24219l-18.941 71.277-0.23047-0.24219c-1.1094 3.0078-3.0078 5.5312-5.6875 7.5859-2.8398 1.8867-5.9961 2.8398-9.4727 2.8398-4.7344 0-8.6016-1.582-11.598-4.7344-3.3203-3.3203-4.9766-7.1875-4.9766-11.609l0.24219-2.6016-0.24609 0.007813 26.047-96.852v-0.23047l0.24219-1.8945c1.2578-3.793 3.4648-6.793 6.6289-8.9961 3.3086-2.375 7.0195-3.5586 11.125-3.5586zm-176.18-88.086c10.578 0 19.652 3.707 27.23 11.129 7.5859 7.5781 11.367 16.66 11.367 27.23 0 10.742-3.7852 19.895-11.367 27.473-7.5781 7.5781-16.652 11.367-27.23 11.367-10.73 0-19.887-3.793-27.465-11.367s-11.367-16.73-11.367-27.473c0-10.57 3.793-19.652 11.367-27.23 7.5781-7.4219 16.738-11.129 27.465-11.129z" fill-rule="evenodd"/>
</svg>
