<?xml version="1.0" encoding="utf-8"?>
<!-- Generator: Adobe Illustrator 23.0.5, SVG Export Plug-In . SVG Version: 6.00 Build 0)  -->
<svg version="1.1" id="Layer_1" xmlns="http://www.w3.org/2000/svg" xmlns:xlink="http://www.w3.org/1999/xlink" x="0px" y="0px"
	 viewBox="0 0 198.6 387.6" style="enable-background:new 0 0 198.6 387.6;" xml:space="preserve">
<style type="text/css">
	.st0{fill-rule:evenodd;clip-rule:evenodd;fill:#32B066;}
</style>
<path class="st0" d="M20.5,105.7c3.5-3.5,7.7-5.2,12.8-5.2v-0.2h138.8v0.2c4.6,0.5,8.4,2.4,11.6,5.9c3.2,3.3,4.7,7.3,4.7,12.1v109.6
	c0,4.7-1.7,8.6-5,11.6c-3,3-6.8,4.5-11.4,4.5s-8.4-1.5-11.6-4.5c-3-3-4.5-6.9-4.5-11.6h-0.2v-76.5c0-1.6-0.5-2.9-1.4-3.8
	c-1.1-1.1-2.4-1.7-3.8-1.7c-1.6,0-2.8,0.5-3.8,1.7c-1.1,0.9-1.7,2.2-1.7,3.8v200.8c0,5.2-1.8,9.6-5.4,13.3
	c-3.6,3.8-8.1,5.7-13.5,5.7c-5.2,0-9.6-1.9-13.3-5.7c-3.8-3.6-5.7-8-5.7-13.3V251.3h-0.2c0-1.6-0.5-2.8-1.4-3.8
	c-1.1-1.1-2.3-1.7-3.6-1.7c-1.6,0-2.8,0.6-3.8,1.7c-1.1,0.9-1.7,2.2-1.7,3.8h-0.2v101.1c0,5.2-1.9,9.6-5.7,13.3
	c-3.6,3.8-8,5.7-13.3,5.7c-5.4,0-9.9-1.9-13.5-5.7c-3.6-3.6-5.4-8-5.4-13.3V151.6c-0.2-1.4-0.7-2.6-1.7-3.6
	c-1.1-1.1-2.4-1.7-3.8-1.7c-1.3,0-2.5,0.6-3.6,1.7c-0.9,0.9-1.5,2.1-1.7,3.6v76.5c0,4.6-1.5,8.4-4.5,11.6c-3.2,3-7,4.5-11.6,4.5
	s-8.4-1.5-11.6-4.5c-3.2-3.2-4.7-7-4.7-11.6h-0.2V118.5C15.3,113.5,17.1,109.2,20.5,105.7L20.5,105.7z M98.9,12.9
	c10.6,0,19.7,3.7,27.2,11.1c7.6,7.6,11.4,16.7,11.4,27.2c0,10.7-3.8,19.9-11.4,27.5s-16.7,11.4-27.2,11.4
	c-10.7,0-19.9-3.8-27.5-11.4S60,62,60,51.2c0-10.6,3.8-19.7,11.4-27.2C79,16.6,88.2,12.9,98.9,12.9L98.9,12.9z"/>
</svg>
