<?xml version="1.0" encoding="utf-8"?>
<!-- Generator: Adobe Illustrator 23.0.5, SVG Export Plug-In . SVG Version: 6.00 Build 0)  -->
<svg version="1.1" id="Layer_1" xmlns="http://www.w3.org/2000/svg" xmlns:xlink="http://www.w3.org/1999/xlink" x="0px" y="0px"
	 viewBox="0 0 752 752" style="enable-background:new 0 0 752 752;" xml:space="preserve">
<style type="text/css">
	.st0{fill:#32B066;}
</style>
<g>
	<path class="st0" d="M415,291.3c0.1-0.4,0.1-0.9,0-1.4c0-0.2,0-0.4,0-0.6v-0.6l-12-16.4l-0.9-0.5c-0.1-0.2-0.3-0.4-0.5-0.5h-0.3
		l-0.5-0.2c-0.3,0-0.6,0-0.9,0h-49.2l-0.6,0.3h0c-0.1,0.1-0.3,0.3-0.4,0.4c-0.2,0.1-0.3,0.3-0.5,0.4l-11.4,16.4l-0.3,0.4h0
		c-0.2,0.4-0.3,0.8-0.3,1.2c0,0.6,0.1,1.1,0.3,1.7l0.2,0.4v0.3l35,41.3h0c0.2,0.2,0.5,0.4,0.8,0.6h0.3c0.4,0.2,0.8,0.3,1.3,0.3
		c0.5,0,0.9-0.1,1.3-0.3h0.3c0.3-0.2,0.6-0.4,0.8-0.6l36-41.3v-0.3l0.3-0.4c0.1-0.3,0.2-0.6,0.3-0.9L415,291.3z M375.5,319.2
		l-7.3-25h14.5L375.5,319.2z M382.5,277.8h10l-5,6.8L382.5,277.8z M380.5,287.3h-10l5-7L380.5,287.3z M363.7,284.6L359,278h9.5
		L363.7,284.6z M399.7,280.3l4.7,6.8h-9.9L399.7,280.3z M352.3,280.3l4.7,6.7h-9.5L352.3,280.3z M361.2,294.2l6.6,22.7l-19.3-22.7
		H361.2z M383.8,317.4l6.4-23.2h13.5L383.8,317.4z"/>
	<path class="st0" d="M490.6,494.1h-34.1V233.9c0-2-1.6-3.6-3.6-3.6H299.1c-1,0-1.9,0.3-2.6,1c-0.7,0.7-1.1,1.6-1.1,2.5v260.1h-34.1
		c-2,0-3.6,1.6-3.6,3.6v20.5c0,2,1.6,3.6,3.6,3.6h229.1c2,0,3.6-1.6,3.6-3.6v-20.5C494.1,495.7,492.5,494.1,490.6,494.1L490.6,494.1
		z M302.7,237.5h146.8v256.6H302.7V237.5z M487,514.5H265v-13.4h222L487,514.5z"/>
	<path class="st0" d="M330.5,352.9c-5.2,0-9.9,3.1-11.9,8c-2,4.8-0.9,10.4,2.8,14c3.7,3.7,9.2,4.8,14,2.8c4.8-2,7.9-6.7,7.9-11.9
		C343.4,358.7,337.7,352.9,330.5,352.9L330.5,352.9z M330.5,371.6c-2.3,0-4.4-1.4-5.3-3.6c-0.9-2.2-0.4-4.6,1.3-6.3s4.1-2.1,6.3-1.3
		c2.2,0.9,3.6,3,3.6,5.3c0,1.5-0.6,3-1.7,4.1C333.5,370.9,332.1,371.5,330.5,371.6L330.5,371.6z"/>
</g>
</svg>
