<?xml version="1.0" encoding="utf-8"?>
<!-- Generator: Adobe Illustrator 16.0.0, SVG Export Plug-In . SVG Version: 6.00 Build 0)  -->
<!DOCTYPE svg PUBLIC "-//W3C//DTD SVG 1.1//EN" "http://www.w3.org/Graphics/SVG/1.1/DTD/svg11.dtd">
<svg version="1.1" id="Layer_1" xmlns="http://www.w3.org/2000/svg" xmlns:xlink="http://www.w3.org/1999/xlink" x="0px" y="0px"
	 width="64px" height="64px" viewBox="0 0 64 64" enable-background="new 0 0 64 64" xml:space="preserve">
<g display="none">
	<path display="inline" d="M58.241,16.121l-0.498-0.518c-2.126-2.212-5.219-5.536-7.945-8.466C47.61,4.781,45.6,2.623,44.369,1.337
		l-0.526-0.551H4.733v62.429h53.508V16.121z M52.309,15.056h-7.443V7.071c0.728,0.784,1.512,1.623,2.319,2.494
		C48.856,11.362,50.662,13.304,52.309,15.056L52.309,15.056z M8.299,59.648V4.354h32.999v14.27h13.378v41.025H8.299z M8.299,59.648"
		/>
	<path display="inline" d="M47.971,49.166H14.672c-0.994,0-1.797,0.798-1.797,1.785c0,0.982,0.804,1.784,1.797,1.784h33.298
		c0.994,0,1.799-0.802,1.799-1.784C49.77,49.964,48.965,49.166,47.971,49.166L47.971,49.166z M47.971,37.334H14.672
		c-0.994,0-1.797,0.798-1.797,1.785c0,0.982,0.804,1.785,1.797,1.785h33.298c0.994,0,1.799-0.803,1.799-1.785
		C49.77,38.132,48.965,37.334,47.971,37.334L47.971,37.334z M32.024,25.701h-18.05c-0.539,0-0.974,0.798-0.974,1.785
		c0,0.983,0.436,1.785,0.974,1.785h18.05c0.539,0,0.976-0.802,0.976-1.785C33,26.499,32.563,25.701,32.024,25.701L32.024,25.701z
		 M24.724,14.701H13.442c-0.336,0-0.609,0.798-0.609,1.785c0,0.983,0.272,1.785,0.609,1.785h11.282c0.336,0,0.609-0.802,0.609-1.785
		C25.333,15.499,25.061,14.701,24.724,14.701L24.724,14.701z M49.16,25.764H37.879c-0.336,0-0.609,0.798-0.609,1.785
		c0,0.983,0.273,1.785,0.609,1.785H49.16c0.337,0,0.609-0.802,0.609-1.785C49.77,26.562,49.497,25.764,49.16,25.764L49.16,25.764z
		 M47.986,49.968"/>
</g>
<g display="none">
	<path display="inline" d="M58.313,16.078l-0.498-0.519c-2.133-2.219-5.233-5.551-7.968-8.489c-2.193-2.362-4.209-4.526-5.443-5.815
		l-0.528-0.553H4.661v62.597h53.653V16.078z M52.365,15.01h-7.464V7.003c0.729,0.787,1.516,1.627,2.325,2.501
		C48.904,11.307,50.714,13.253,52.365,15.01L52.365,15.01z M8.236,59.724V4.279h33.088v14.308h13.414v41.137H8.236z M8.236,59.724"
		/>
	<path display="inline" d="M14.498,26.299c0.987,0,1.787-0.799,1.787-1.789v-4.247h1.712l3.003,5.149
		c0.332,0.569,0.93,0.887,1.545,0.887c0.306,0,0.616-0.076,0.901-0.244c0.852-0.497,1.143-1.594,0.643-2.445l-2.384-4.082
		c1.569-0.923,2.628-2.625,2.628-4.574c0-2.928-2.382-5.309-5.311-5.309h-4.525c-0.989,0-1.789,0.799-1.789,1.788V24.51
		C12.709,25.5,13.509,26.299,14.498,26.299L14.498,26.299z M20.756,14.954c0,0.958-0.775,1.733-1.733,1.733h-2.738v-3.466h2.738
		C19.981,13.221,20.756,13.996,20.756,14.954L20.756,14.954z M20.756,14.954"/>
	<path display="inline" d="M24.63,21.36l2.703,4.095l-2.703,4.09c-0.544,0.823-0.317,1.932,0.504,2.476
		c0.302,0.202,0.645,0.296,0.985,0.296c0.58,0,1.148-0.28,1.494-0.798l1.867-2.823l1.868,2.823c0.343,0.518,0.913,0.798,1.493,0.798
		c0.337,0,0.679-0.095,0.984-0.296c0.824-0.544,1.05-1.653,0.505-2.476l-2.705-4.09l2.705-4.095
		c0.545-0.825,0.319-1.932-0.505-2.478c-0.825-0.543-1.931-0.321-2.477,0.503l-1.868,2.824l-1.867-2.824
		c-0.543-0.821-1.652-1.046-2.479-0.503C24.313,19.428,24.086,20.536,24.63,21.36L24.63,21.36z M48.032,40.495H14.944
		c-0.989,0-1.789,0.8-1.789,1.791c0,0.984,0.8,1.788,1.789,1.788h33.088c0.987,0,1.786-0.804,1.786-1.788
		C49.818,41.295,49.02,40.495,48.032,40.495L48.032,40.495z M48.032,50.016H14.944c-0.989,0-1.789,0.802-1.789,1.791
		c0,0.985,0.8,1.789,1.789,1.789h33.088c0.987,0,1.786-0.804,1.786-1.789C49.818,50.817,49.02,50.016,48.032,50.016L48.032,50.016z
		 M48.032,50.016"/>
</g>
<g display="none">
	<path display="inline" fill="none" stroke="#000000" stroke-width="3" stroke-miterlimit="10" d="M25.84,2.16H9.05
		c-1.542,0-2.8,1.495-2.8,3.326v26.6c0,1.83,1.258,3.324,2.8,3.324H25.84c1.542,0,2.798-1.494,2.798-3.324v-26.6
		C28.639,3.655,27.382,2.16,25.84,2.16z"/>
	<path display="inline" fill="none" stroke="#000000" stroke-width="3" stroke-miterlimit="10" d="M25.84,42.061H9.05
		c-1.542,0-2.8,1.492-2.8,3.326v13.301c0,1.831,1.258,3.324,2.8,3.324H25.84c1.542,0,2.798-1.493,2.798-3.324V45.387
		C28.639,43.553,27.382,42.061,25.84,42.061z"/>
	<path display="inline" fill="none" stroke="#000000" stroke-width="3" stroke-miterlimit="10" d="M53.826,2.16H37.035
		c-1.542,0-2.8,1.495-2.8,3.326v13.299c0,1.832,1.258,3.326,2.8,3.326h16.791c1.542,0,2.799-1.494,2.799-3.326V5.486
		C56.625,3.655,55.368,2.16,53.826,2.16z"/>
	<path display="inline" fill="none" stroke="#000000" stroke-width="3" stroke-miterlimit="10" d="M53.826,28.761H37.035
		c-1.542,0-2.8,1.494-2.8,3.325v26.602c0,1.831,1.258,3.324,2.8,3.324h16.791c1.542,0,2.799-1.493,2.799-3.324V32.086
		C56.625,30.254,55.368,28.761,53.826,28.761z"/>
</g>
<g display="none">
	<g display="inline">
		<path fill="#0B0B0B" d="M13.691,13.479c-0.45,0.462-0.45,1.208,0.023,1.658c0.462,0.45,1.208,0.45,1.658-0.023
			c4.238-4.345,9.921-6.772,15.983-6.843c5.919-0.071,11.531,2.131,15.829,6.18l-2.154,0.024c-0.651,0.012-1.16,0.533-1.16,1.184
			c0.012,0.639,0.532,1.16,1.172,1.16h0.011l4.997-0.059c0.651-0.012,1.16-0.533,1.16-1.184l-0.047-4.984
			c-0.013-0.639-0.532-1.16-1.173-1.16h-0.011c-0.651,0.012-1.161,0.533-1.161,1.184l0.024,2.179
			c-4.748-4.499-10.964-6.938-17.511-6.867C24.63,6.02,18.367,8.696,13.691,13.479z"/>
		<path d="M47.858,46.877c-4.238,4.346-9.921,6.772-15.983,6.843c-5.919,0.071-11.531-2.131-15.829-6.18l2.154-0.024
			c0.651-0.011,1.161-0.532,1.161-1.184c-0.012-0.639-0.533-1.159-1.172-1.159h-0.012l-4.996,0.058
			c-0.651,0.013-1.16,0.533-1.16,1.185l0.059,4.997c0.012,0.639,0.533,1.159,1.172,1.159h0.011c0.651-0.012,1.161-0.533,1.161-1.185
			l-0.023-2.177c4.676,4.427,10.762,6.866,17.214,6.866c0.095,0,0.201,0,0.296,0c6.689-0.084,12.964-2.759,17.641-7.541
			c0.449-0.463,0.449-1.209-0.023-1.658C49.054,46.403,48.32,46.415,47.858,46.877z"/>
		<path fill="#2D3034" d="M12.258,30.444c0-0.391-0.202-0.758-0.521-0.971c-0.213-0.142-0.332-0.378-0.332-0.627v-4.273
			c0-1.48,1.196-2.676,2.676-2.676h0.923c1.48,0,2.676,1.195,2.676,2.676v4.273c0,0.249-0.13,0.486-0.332,0.627
			c-0.332,0.213-0.521,0.581-0.521,0.971v4.12c0,0.521,0.296,0.994,0.77,1.22c0.533,0.261,3.292,1.657,5.849,3.753
			c0.201,0.165,0.319,0.426,0.319,0.698v2.925c0,0.65,0.521,1.172,1.172,1.172c0.651,0,1.172-0.521,1.172-1.172v-2.925
			c0-0.971-0.426-1.883-1.184-2.51c-2.238-1.848-4.641-3.186-5.754-3.765v-2.972c0.544-0.568,0.864-1.337,0.864-2.143v-4.273
			c0-2.771-2.25-5.02-5.02-5.02h-0.923c-2.77,0-5.02,2.25-5.02,5.02v4.273c0,0.806,0.308,1.575,0.864,2.143v2.972
			c-1.125,0.579-3.516,1.93-5.753,3.765C3.438,38.341,3,39.253,3,40.235v2.925c0,0.65,0.521,1.172,1.172,1.172
			c0.651,0,1.171-0.521,1.171-1.172v-2.925c0-0.272,0.119-0.521,0.32-0.698c2.545-2.096,5.315-3.492,5.849-3.753
			c0.461-0.226,0.77-0.711,0.77-1.22v-4.12H12.258z"/>
		<path fill="#2D3034" d="M59.815,37.736c-2.237-1.846-4.641-3.184-5.753-3.765v-2.971c0.544-0.569,0.864-1.338,0.864-2.143v-4.274
			c0-2.77-2.249-5.02-5.02-5.02h-0.924c-2.771,0-5.02,2.25-5.02,5.02v4.274c0,0.805,0.308,1.574,0.863,2.143v2.96
			c-1.124,0.579-3.515,1.93-5.753,3.765c-0.746,0.615-1.184,1.527-1.184,2.51v2.925c0,0.65,0.521,1.172,1.172,1.172
			s1.172-0.521,1.172-1.172v-2.925c0-0.272,0.118-0.521,0.319-0.698c2.546-2.096,5.316-3.492,5.849-3.753
			c0.462-0.226,0.758-0.711,0.758-1.22v-4.12c0-0.391-0.202-0.758-0.521-0.971c-0.213-0.142-0.332-0.378-0.332-0.627v-4.273
			c0-1.48,1.197-2.676,2.677-2.676h0.924c1.479,0,2.675,1.195,2.675,2.676v4.273c0,0.249-0.13,0.486-0.331,0.627
			c-0.331,0.213-0.521,0.581-0.521,0.971v4.12c0,0.521,0.296,0.994,0.758,1.22c0.532,0.261,3.303,1.657,5.848,3.753
			c0.202,0.165,0.32,0.426,0.32,0.698v2.925c0,0.65,0.521,1.172,1.172,1.172S61,43.811,61,43.16v-2.925
			C60.987,39.265,60.562,38.353,59.815,37.736z"/>
	</g>
</g>
<g>
	<g>
		<path fill="#0B0B0B" d="M13.691,14.479c-0.45,0.462-0.45,1.208,0.023,1.658c0.462,0.45,1.208,0.45,1.658-0.023
			c4.238-4.345,9.921-6.772,15.983-6.843c5.919-0.071,11.531,2.131,15.829,6.18l-2.154,0.024c-0.651,0.012-1.16,0.533-1.16,1.184
			c0.012,0.639,0.532,1.16,1.172,1.16h0.011l4.997-0.059c0.651-0.012,1.16-0.533,1.16-1.184l-0.047-4.984
			c-0.013-0.639-0.532-1.16-1.173-1.16h-0.011c-0.651,0.012-1.161,0.533-1.161,1.184l0.024,2.179
			c-4.748-4.499-10.964-6.938-17.511-6.867C24.63,7.02,18.367,9.696,13.691,14.479z"/>
		<path d="M47.858,47.877c-4.238,4.346-9.921,6.772-15.983,6.843c-5.919,0.071-11.531-2.131-15.829-6.18l2.154-0.024
			c0.651-0.011,1.161-0.532,1.161-1.184c-0.012-0.639-0.533-1.159-1.172-1.159h-0.012l-4.996,0.058
			c-0.651,0.013-1.16,0.533-1.16,1.185l0.059,4.997c0.012,0.639,0.533,1.159,1.172,1.159h0.011c0.651-0.012,1.161-0.533,1.161-1.185
			l-0.023-2.177c4.676,4.427,10.762,6.866,17.214,6.866c0.095,0,0.201,0,0.296,0c6.689-0.084,12.964-2.759,17.641-7.541
			c0.449-0.463,0.449-1.209-0.023-1.658C49.054,47.403,48.32,47.415,47.858,47.877z"/>
		<path fill="none" stroke="#2D3034" stroke-width="2" stroke-miterlimit="10" d="M23.488,41.748c0,0.829-0.672,1.502-1.501,1.502
			H10.726c-0.83,0-1.501-0.673-1.501-1.502v-10.51c0-0.829,0.672-1.501,1.501-1.501h11.261c0.829,0,1.501,0.672,1.501,1.501V41.748z
			"/>
		<path fill="none" stroke="#2D3034" stroke-width="2" stroke-miterlimit="10" d="M54,32.658c0,0.813-0.66,1.474-1.474,1.474H41.474
			c-0.814,0-1.474-0.66-1.474-1.474V22.342c0-0.814,0.659-1.474,1.474-1.474h11.053c0.813,0,1.474,0.66,1.474,1.474V32.658z"/>
	</g>
</g>
</svg>
