<?xml version="1.0" encoding="utf-8"?>
<!-- Generator: Adobe Illustrator 25.4.1, SVG Export Plug-In . SVG Version: 6.00 Build 0)  -->
<svg version="1.1" id="Layer_1" xmlns="http://www.w3.org/2000/svg" xmlns:xlink="http://www.w3.org/1999/xlink" x="0px" y="0px"
	 viewBox="0 0 40 40" style="enable-background:new 0 0 40 40;" xml:space="preserve">
<style type="text/css">
	.st0{fill:#91CE9E;}
	.st1{fill:#209D3E;}
	.st2{fill:#FFFFFF;}
	.st3{fill:none;stroke:#209D3E;stroke-linecap:round;}
</style>
<path class="st0" d="M18,38.5c-1.4,0-2.5-1.1-2.5-2.5v-8.5h5V36C20.5,37.4,19.4,38.5,18,38.5z"/>
<path class="st1" d="M20,28v8c0,1.1-0.9,2-2,2s-2-0.9-2-2v-8H20 M21,27h-6v9c0,1.7,1.3,3,3,3s3-1.3,3-3V27z"/>
<path class="st0" d="M23,37.5c-1.4,0-2.5-1.1-2.5-2.5v-8.5h5V35C25.5,36.4,24.4,37.5,23,37.5z"/>
<path class="st1" d="M25,27v8c0,1.1-0.9,2-2,2s-2-0.9-2-2v-8H25 M26,26h-6v9c0,1.7,1.3,3,3,3s3-1.3,3-3V26z"/>
<path class="st0" d="M28,35.5c-1.4,0-2.5-1.1-2.5-2.5V21.5h5V33C30.5,34.4,29.4,35.5,28,35.5z"/>
<path class="st1" d="M30,22v11c0,1.1-0.9,2-2,2s-2-0.9-2-2V22H30 M31,21h-6v12c0,1.7,1.3,3,3,3s3-1.3,3-3V21z"/>
<path class="st0" d="M12,25.2L25.2,1.7L38.3,9L25.1,32.6L12,25.2z"/>
<path class="st1" d="M25.4,2.4l12.2,6.9L24.9,31.9L12.7,25L25.4,2.4 M25.1,1L11.3,25.4l13.9,7.9L39,8.9L25.1,1z"/>
<path class="st0" d="M11.4,28.2l8.7-25.6l14.3,4.8L25.7,33L11.4,28.2z"/>
<path class="st1" d="M20.4,3.3l13.3,4.5l-8.3,24.6l-13.3-4.5L20.4,3.3 M19.8,2l-9,26.5L26,33.6l9-26.5L19.8,2z"/>
<path class="st2" d="M24.4,13.3c-2.5-0.9-5.3,0.5-6.1,3c-0.9,2.5,0.5,5.2,3,6.1c0,0,0,0,0,0c2.5,0.9,5.3-0.5,6.1-3
	C28.3,16.8,27,14.1,24.4,13.3C24.5,13.3,24.5,13.3,24.4,13.3z M26.6,7.1c-1-0.4-2.2,0.2-2.5,1.2c-0.4,1,0.2,2.2,1.2,2.5
	C25.6,11,25.8,11,26,11c0.8,0,1.6-0.5,1.9-1.4C28.2,8.6,27.7,7.5,26.6,7.1C26.6,7.1,26.6,7.1,26.6,7.1z"/>
<path class="st0" d="M24.4,23.3c-1-1.3-2.8-1.7-4.2-0.7c0,0,0,0,0,0l-8,5.2c-0.1,0-0.2,0.1-0.2,0.1c-0.4,0-0.7-0.5-0.4-0.8l2.3-2.8
	l2-8.2h-4.3c-0.5,0-0.9,0.2-1.2,0.4L1,23v16h8.2c1.2,0,2.3-0.4,3.2-1.2l11.4-10.4C25.1,26.5,25.4,24.6,24.4,23.3
	C24.4,23.3,24.4,23.3,24.4,23.3z"/>
<path class="st3" d="M1.5,23.3l9.2-6.4c0.3-0.2,0.6-0.3,1-0.3h3.8l-2,7.6l-2.2,2.6C11,27,11,27.4,11.1,27.8c0.2,0.4,0.5,0.6,0.9,0.6
	c0.2,0,0.3,0,0.5-0.1l8-5.3c1.1-0.8,2.7-0.6,3.5,0.6c0.8,1.1,0.6,2.7-0.6,3.5l0,0L12.1,37.5c-0.8,0.7-1.8,1-2.9,1H1.5"/>
<path class="st0" d="M15.1,16l-3.4,10.9l0,0.1c-0.4,0.4,0.1,1,0.6,0.8L15,26l1.8-10H15.1z"/>
<path class="st1" d="M15.1,16l-3.5,11.2l0,0c-0.1,0.4,0.3,0.8,0.7,0.5l0.2-0.1L16.1,16H15.1z"/>
</svg>
