<?xml version="1.0" encoding="utf-8"?>
<!-- Generator: Adobe Illustrator 25.4.1, SVG Export Plug-In . SVG Version: 6.00 Build 0)  -->
<svg version="1.1" id="Layer_1" xmlns="http://www.w3.org/2000/svg" xmlns:xlink="http://www.w3.org/1999/xlink" x="0px" y="0px"
	 viewBox="0 0 40 40" style="enable-background:new 0 0 40 40;" xml:space="preserve">
<style type="text/css">
	.st0{fill:#FFFFFF;}
	.st1{fill:#209D3E;}
	.st2{fill:#91CE9E;}
	.st3{fill:none;stroke:#209D3E;stroke-linecap:round;stroke-miterlimit:10;}
</style>
<path class="st0" d="M1.5,4.5h37v20h-37V4.5z"/>
<path class="st1" d="M38,5v19H2V5H38 M39,4H1v21h38V4z"/>
<path class="st2" d="M2,5h36v5H2V5z"/>
<path class="st3" d="M5.5,18.5h15 M5.5,14.5h15 M27.5,18.5h7 M27.5,14.5h7"/>
<path class="st2" d="M3.8,33.5c-1.3,0-2.3-1.1-2.3-2.5s1-2.5,2.3-2.5h10.7v5H3.8z"/>
<path class="st1" d="M37,30h-2v2h2l2-1L37,30z"/>
<path class="st2" d="M19.5,33.5v-5H34c1.4,0,2.5,1.1,2.5,2.5c0,1.4-1.1,2.5-2.5,2.5H19.5z"/>
<path class="st3" d="M18.5,35.5h-13c-0.6,0-1-0.4-1-1V34"/>
<path class="st1" d="M34,28H3.8C2.3,28,1,29.3,1,31c0,1.7,1.3,3,2.8,3H34c1.7,0,3-1.3,3-3C37,29.3,35.7,28,34,28z M34,33H3.8
	c-1,0-1.8-0.9-1.8-2s0.8-2,1.8-2H34c1.1,0,2,0.9,2,2S35.1,33,34,33z"/>
</svg>
