<?xml version="1.0" encoding="utf-8"?>
<!-- Generator: Adobe Illustrator 25.4.1, SVG Export Plug-In . SVG Version: 6.00 Build 0)  -->
<svg version="1.1" id="Layer_1" xmlns="http://www.w3.org/2000/svg" xmlns:xlink="http://www.w3.org/1999/xlink" x="0px" y="0px"
	 viewBox="0 0 40 40" style="enable-background:new 0 0 40 40;" xml:space="preserve">
<style type="text/css">
	.st0{fill:#209D3E;}
	.st1{fill:#91CE9E;}
</style>
<path class="st0" d="M17,8l15,3.8V38H2V11.8L17,8 M17,7L1,11v28h32V11L17,7z"/>
<path class="st1" d="M14,24h6v14h-6V24z M5,24h6v6H5V24z M23,15h6v6h-6V15z M5,15h6v6H5V15z M14,15h6v6h-6V15z"/>
<path class="st1" d="M34.5,28.5h-9v-3h9v-3.3l4.8,4.8l-4.8,4.8V28.5z"/>
<path class="st0" d="M35,23.4l3.6,3.6L35,30.6V28h-9v-2h9V23.4 M34,21v4h-9v4h9v4l6-6L34,21z"/>
<path class="st0" d="M32.5,20c0.3,0,0.5,0.2,0.5,0.5v2c0,0.3-0.2,0.5-0.5,0.5S32,22.8,32,22.5v-2C32,20.2,32.2,20,32.5,20z M32.5,34
	c0.3,0,0.5-0.2,0.5-0.5v-2c0-0.3-0.2-0.5-0.5-0.5S32,31.2,32,31.5v2C32,33.8,32.2,34,32.5,34z"/>
</svg>
