<?xml version="1.0" encoding="utf-8"?>
<!-- Generator: Adobe Illustrator 25.4.1, SVG Export Plug-In . SVG Version: 6.00 Build 0)  -->
<svg version="1.1" id="Layer_1" xmlns="http://www.w3.org/2000/svg" xmlns:xlink="http://www.w3.org/1999/xlink" x="0px" y="0px"
	 viewBox="0 0 40 40" style="enable-background:new 0 0 40 40;" xml:space="preserve">
<style type="text/css">
	.st0{fill:#209D3E;}
	.st1{fill:#91CE9E;}
</style>
<path class="st0" d="M23,8l15,3.8V38H8V11.8L23,8 M23,7L7,11v28h32V11L23,7z"/>
<path class="st1" d="M20,24h6v14h-6V24z M29,24h6v6h-6V24z M29,15h6v6h-6V15z M11,15h6v6h-6V15z M20,15h6v6h-6V15z"/>
<path class="st1" d="M10.5,28.5h-9v-3h9v-3.3l4.8,4.8l-4.8,4.8V28.5z"/>
<path class="st0" d="M11,23.4l3.6,3.6L11,30.6V28H2v-2h9V23.4 M10,21v4H1v4h9v4l6-6L10,21z"/>
<path class="st0" d="M7.5,20C7.2,20,7,20.2,7,20.5v2C7,22.8,7.2,23,7.5,23S8,22.8,8,22.5v-2C8,20.2,7.8,20,7.5,20z M7.5,35
	C7.8,35,8,34.8,8,34.5v-3C8,31.2,7.8,31,7.5,31S7,31.2,7,31.5v3C7,34.8,7.2,35,7.5,35z"/>
</svg>
