<svg height="448pt" viewBox="-40 0 448 448" width="448pt" xmlns="http://www.w3.org/2000/svg"><path d="m272 88c0 48.601562-39.398438 88-88 88s-88-39.398438-88-88 39.398438-88 88-88 88 39.398438 88 88zm0 0"/><path d="m88 304c0 4.417969-3.582031 8-8 8s-8-3.582031-8-8 3.582031-8 8-8 8 3.582031 8 8zm0 0"/><path d="m264.953125 210.816406c18.152344 18.984375 29.015625 43.769532 30.679687 69.984375 18.761719 3.664063 32.316407 20.082031 32.367188 39.199219v32h-16v-32c0-13.253906-10.746094-24-24-24s-24 10.746094-24 24v32h-16v-32c.03125-18.851562 13.207031-35.128906 31.640625-39.089844-3.671875-50.238281-45.59375-89.070312-95.964844-88.894531-50.375.171875-92.023437 39.296875-95.347656 89.558594 10.96875 4.042969 17.429687 15.394531 15.304687 26.890625-2.125 11.492187-12.222656 19.78125-23.910156 19.628906s-21.566406-8.699219-23.394531-20.246094c-1.824219-11.542968 4.929687-22.726562 16-26.480468 1.535156-26.417969 12.421875-51.425782 30.710937-70.550782-63.019531 30.925782-102.976562 94.984375-103.039062 165.183594v72h368v-72c-.0625-70.199219-40.027344-134.261719-103.046875-165.183594zm0 0"/></svg>