<?xml version="1.0" encoding="utf-8"?>
<!-- Generator: Adobe Illustrator 16.0.0, SVG Export Plug-In . SVG Version: 6.00 Build 0)  -->
<!DOCTYPE svg PUBLIC "-//W3C//DTD SVG 1.1//EN" "http://www.w3.org/Graphics/SVG/1.1/DTD/svg11.dtd">
<svg version="1.1" id="Layer_1" xmlns="http://www.w3.org/2000/svg" xmlns:xlink="http://www.w3.org/1999/xlink" x="0px" y="0px"
	 width="64px" height="64px" viewBox="0 0 64 64" enable-background="new 0 0 64 64" xml:space="preserve">
<g>
	<path d="M58.241,16.121l-0.498-0.518c-2.126-2.212-5.219-5.536-7.945-8.466C47.61,4.781,45.6,2.623,44.369,1.337l-0.526-0.551
		H4.733v62.429h53.508V16.121z M52.309,15.056h-7.443V7.071c0.728,0.784,1.512,1.623,2.319,2.494
		C48.856,11.362,50.662,13.304,52.309,15.056L52.309,15.056z M8.299,59.648V4.354h32.999v14.27h13.378v41.025H8.299z M8.299,59.648"
		/>
	<path d="M47.971,49.166H14.672c-0.994,0-1.797,0.798-1.797,1.785c0,0.982,0.804,1.784,1.797,1.784h33.298
		c0.994,0,1.799-0.802,1.799-1.784C49.77,49.964,48.965,49.166,47.971,49.166L47.971,49.166z M47.971,37.334H14.672
		c-0.994,0-1.797,0.798-1.797,1.785c0,0.982,0.804,1.785,1.797,1.785h33.298c0.994,0,1.799-0.803,1.799-1.785
		C49.77,38.132,48.965,37.334,47.971,37.334L47.971,37.334z M32.024,25.701h-18.05c-0.539,0-0.974,0.798-0.974,1.785
		c0,0.983,0.436,1.785,0.974,1.785h18.05c0.539,0,0.976-0.802,0.976-1.785C33,26.499,32.563,25.701,32.024,25.701L32.024,25.701z
		 M24.724,14.701H13.442c-0.336,0-0.609,0.798-0.609,1.785c0,0.983,0.272,1.785,0.609,1.785h11.282c0.336,0,0.609-0.802,0.609-1.785
		C25.333,15.499,25.061,14.701,24.724,14.701L24.724,14.701z M49.16,25.764H37.879c-0.336,0-0.609,0.798-0.609,1.785
		c0,0.983,0.273,1.785,0.609,1.785H49.16c0.337,0,0.609-0.802,0.609-1.785C49.77,26.562,49.497,25.764,49.16,25.764L49.16,25.764z
		 M47.986,49.968"/>
</g>
<g display="none">
	<path display="inline" d="M58.313,16.078l-0.498-0.519c-2.133-2.219-5.233-5.551-7.968-8.489c-2.193-2.362-4.209-4.526-5.443-5.815
		l-0.528-0.553H4.661v62.597h53.653V16.078z M52.365,15.01h-7.464V7.003c0.729,0.787,1.516,1.627,2.325,2.501
		C48.904,11.307,50.714,13.253,52.365,15.01L52.365,15.01z M8.236,59.724V4.279h33.088v14.308h13.414v41.137H8.236z M8.236,59.724"
		/>
	<path display="inline" d="M14.498,26.299c0.987,0,1.787-0.799,1.787-1.789v-4.247h1.712l3.003,5.149
		c0.332,0.569,0.93,0.887,1.545,0.887c0.306,0,0.616-0.076,0.901-0.244c0.852-0.497,1.143-1.594,0.643-2.445l-2.384-4.082
		c1.569-0.923,2.628-2.625,2.628-4.574c0-2.928-2.382-5.309-5.311-5.309h-4.525c-0.989,0-1.789,0.799-1.789,1.788V24.51
		C12.709,25.5,13.509,26.299,14.498,26.299L14.498,26.299z M20.756,14.954c0,0.958-0.775,1.733-1.733,1.733h-2.738v-3.466h2.738
		C19.981,13.221,20.756,13.996,20.756,14.954L20.756,14.954z M20.756,14.954"/>
	<path display="inline" d="M24.63,21.36l2.703,4.095l-2.703,4.09c-0.544,0.823-0.317,1.932,0.504,2.476
		c0.302,0.202,0.645,0.296,0.985,0.296c0.58,0,1.148-0.28,1.494-0.798l1.867-2.823l1.868,2.823c0.343,0.518,0.913,0.798,1.493,0.798
		c0.337,0,0.679-0.095,0.984-0.296c0.824-0.544,1.05-1.653,0.505-2.476l-2.705-4.09l2.705-4.095
		c0.545-0.825,0.319-1.932-0.505-2.478c-0.825-0.543-1.931-0.321-2.477,0.503l-1.868,2.824l-1.867-2.824
		c-0.543-0.821-1.652-1.046-2.479-0.503C24.313,19.428,24.086,20.536,24.63,21.36L24.63,21.36z M48.032,40.495H14.944
		c-0.989,0-1.789,0.8-1.789,1.791c0,0.984,0.8,1.788,1.789,1.788h33.088c0.987,0,1.786-0.804,1.786-1.788
		C49.818,41.295,49.02,40.495,48.032,40.495L48.032,40.495z M48.032,50.016H14.944c-0.989,0-1.789,0.802-1.789,1.791
		c0,0.985,0.8,1.789,1.789,1.789h33.088c0.987,0,1.786-0.804,1.786-1.789C49.818,50.817,49.02,50.016,48.032,50.016L48.032,50.016z
		 M48.032,50.016"/>
</g>
<g display="none">
	<path display="inline" fill="none" stroke="#000000" stroke-width="3" stroke-miterlimit="10" d="M25.84,2.16H9.05
		c-1.542,0-2.8,1.495-2.8,3.326v26.6c0,1.83,1.258,3.324,2.8,3.324H25.84c1.542,0,2.798-1.494,2.798-3.324v-26.6
		C28.639,3.655,27.382,2.16,25.84,2.16z"/>
	<path display="inline" fill="none" stroke="#000000" stroke-width="3" stroke-miterlimit="10" d="M25.84,42.061H9.05
		c-1.542,0-2.8,1.492-2.8,3.326v13.301c0,1.831,1.258,3.324,2.8,3.324H25.84c1.542,0,2.798-1.493,2.798-3.324V45.387
		C28.639,43.553,27.382,42.061,25.84,42.061z"/>
	<path display="inline" fill="none" stroke="#000000" stroke-width="3" stroke-miterlimit="10" d="M53.826,2.16H37.035
		c-1.542,0-2.8,1.495-2.8,3.326v13.299c0,1.832,1.258,3.326,2.8,3.326h16.791c1.542,0,2.799-1.494,2.799-3.326V5.486
		C56.625,3.655,55.368,2.16,53.826,2.16z"/>
	<path display="inline" fill="none" stroke="#000000" stroke-width="3" stroke-miterlimit="10" d="M53.826,28.761H37.035
		c-1.542,0-2.8,1.494-2.8,3.325v26.602c0,1.831,1.258,3.324,2.8,3.324h16.791c1.542,0,2.799-1.493,2.799-3.324V32.086
		C56.625,30.254,55.368,28.761,53.826,28.761z"/>
</g>
</svg>
